<svg width="112" height="120" viewBox="0 0 112 120" fill="none" xmlns="http://www.w3.org/2000/svg">
<g clip-path="url(#clip0)">
<path fill-rule="evenodd" clip-rule="evenodd" d="M112.042 57.1081C112.042 87.9776 86.9444 113.029 56.0224 113.029C25.1004 113.029 0.00248718 87.9752 0.00248718 57.1081C0.00248718 26.241 25.1004 1.18758 56.0224 1.18758C86.9444 1.18758 112.042 26.241 112.042 57.1081Z" fill="url(#paint0_radial)"/>
<path fill-rule="evenodd" clip-rule="evenodd" d="M56.0199 1.18758C43.7925 1.18758 32.481 5.10931 23.2686 11.7543C19.2575 16.5965 16.4476 21.4437 16.4476 21.4437L11.3299 23.4002C4.2219 32.7757 0.00547791 44.4557 0.00547791 57.1121C0.00547791 58.2942 0.0418128 59.4651 0.114488 60.6291C1.38755 62.8999 2.33881 64.3481 2.33881 64.3481L1.68548 70.7302C5.34439 85.3091 14.7409 97.6221 27.336 105.14C28.2359 105.721 28.9876 106.073 29.8134 106.539C29.3754 106.126 29.2402 106.015 28.9537 105.754C25.6567 102.349 22.8794 98.3697 22.8794 98.3697L30.8515 91.0484C30.8515 91.0484 35.9771 94.9155 41.7327 96.918C47.4882 98.9205 53.8737 99.0609 53.8737 99.0609L57.8249 109.185C57.8249 109.185 54.3334 110.972 49.3781 111.848C48.4908 112.005 47.553 112.132 46.6169 112.236C49.7236 112.763 52.869 113.028 56.0202 113.028C68.9731 113.028 80.9066 108.635 90.3967 101.258C93.3659 97.2867 95.3123 93.8743 95.3123 93.8743L99.6367 92.1819C107.311 82.6855 111.941 70.6368 112.034 57.516C110.51 53.0047 108.846 50.3578 108.846 50.3578C108.846 50.3578 109.27 46.238 108.674 41.6999C108.58 40.9878 109.059 41.2412 109.636 40.8547C109.465 40.2099 108.844 38.2942 108.53 37.3794C107.296 33.7779 106.081 32.0596 105.283 30.4666C106.837 31.3332 105.277 30.4619 105.276 30.4589C95.7854 13.0271 77.278 1.18932 56.0179 1.18932L56.0199 1.18758ZM62.7944 3.31503C67.4496 3.37838 72.3067 4.88323 72.3067 4.88323C72.3067 4.88323 77.8253 7 81.7645 9.9918C85.7036 12.9836 88.0644 16.8475 88.0644 16.8475L78.0466 23.7573C78.0466 23.7573 72.6542 20.0698 67.0178 18.0817C61.3815 16.0937 55.499 15.807 55.499 15.807L52.6602 5.48869C52.6602 5.48869 56.9567 3.47379 61.869 3.32248C62.1775 3.31306 62.4861 3.31049 62.7947 3.31478L62.7944 3.31503ZM30.0581 30.9399C33.4977 30.9555 36.3579 31.3667 36.3579 31.3667L41.5378 53.3389L24.909 69.1463C24.909 69.1463 19.7165 65.8576 15.9724 62.64C12.2284 59.4224 9.92918 56.2735 9.92918 56.2735C9.92918 56.2735 10.6052 49.8999 12.1303 44.4179C13.6555 38.9359 16.0349 34.3483 16.0349 34.3483C16.0349 34.3483 20.1463 31.9863 25.2284 31.2427C26.8163 31.0102 28.4948 30.9327 30.0583 30.9396L30.0581 30.9399ZM83.95 46.6308C83.95 46.6308 88.6385 48.6812 92.4199 51.7006C96.2013 54.72 99.0777 58.7116 99.0777 58.7116C99.0777 58.7116 98.8094 64.1774 97.001 69.8606C95.1925 75.5439 91.8442 81.4445 91.8442 81.4445C91.8442 81.4445 87.1706 83.1563 82.2386 83.6184C77.3066 84.0805 72.1118 83.2922 72.1118 83.2922L69.5373 72.5391L66.8852 61.4832C66.8852 61.4832 70.4049 57.2467 74.6707 53.5329C78.9364 49.8191 83.9495 46.6308 83.9495 46.6308H83.95Z" fill="url(#paint1_radial)"/>
<path d="M98.6596 58.877C98.6596 58.877 98.3962 64.2045 96.6346 69.7404C94.873 75.2763 91.6133 81.0206 91.6133 81.0206C91.6133 81.0206 87.0593 82.6912 82.255 83.1411C77.4507 83.5911 72.3961 82.8206 72.3961 82.8206L69.8853 72.3486L67.304 61.5824C67.304 61.5824 70.7317 57.4502 74.8872 53.8325C79.0426 50.2149 83.9256 47.112 83.9256 47.112C83.9256 47.112 88.4919 49.1125 92.1755 52.0537C95.8591 54.9948 98.6598 58.8768 98.6598 58.8768L98.6596 58.877Z" stroke="url(#paint2_linear)" stroke-width="4.87" stroke-linejoin="round"/>
<path d="M24.9287 68.6609C24.9287 68.6609 19.8671 65.4544 16.2173 62.318C12.5676 59.1816 10.3299 56.1148 10.3299 56.1148C10.3299 56.1148 10.9862 49.9046 12.4728 44.5607C13.9594 39.2169 16.2768 34.7396 16.2768 34.7396C16.2768 34.7396 20.2834 32.4402 25.2376 31.7153C30.1917 30.9903 36.0929 31.8398 36.0929 31.8398L41.1403 53.2586L24.9287 68.6611V68.6609Z" stroke="url(#paint3_linear)" stroke-width="4.874" stroke-linejoin="round"/>
<path d="M72.0707 5.9354C72.0707 5.9354 76.9151 7.79776 80.3752 10.4256C83.8352 13.0534 85.9105 16.4467 85.9105 16.4467L77.1105 22.5165C77.1105 22.5165 72.3739 19.2733 67.423 17.5272C62.4721 15.7811 55.5478 15.0932 55.5478 15.0932L53.2281 5.93962C53.2281 5.93962 58.0556 4.25764 62.3703 4.12497C66.685 3.9923 72.071 5.9354 72.071 5.9354H72.0707Z" stroke="url(#paint4_linear)" stroke-width="5.016"/>
<path d="M36.0988 31.6646C36.0988 31.6646 45.1054 19.719 55.6209 15.6817" stroke="#666666"/>
<path d="M78.6016 23.4534C78.6016 23.4534 85.3179 34.1183 84.4468 46.2922" stroke="#ECECEC" stroke-width="3"/>
<path d="M57.787 109.198C57.787 109.198 70.8253 112.539 90.9365 100.692M78.0018 23.5801C78.0018 23.5801 84.8651 34.6052 83.994 46.7791L78.0018 23.5801ZM87.3177 16.7826C87.3177 16.7826 102.197 22.646 108.73 41.2174L87.3177 16.7826ZM99.1698 58.6808C99.1698 58.6808 104.407 58.2745 108.983 50.5449L99.1698 58.6808ZM95.429 93.8186C95.429 93.8186 96.1557 89.3145 91.8149 81.1595L95.429 93.8186ZM53.9342 99.1876C53.9342 99.1876 61.9858 97.0574 72.1932 83.0032L53.9342 99.1876ZM24.8516 68.9491C24.8516 68.9491 24.3675 81.4661 30.6153 91.3041L24.8516 68.9491ZM22.8754 98.4348C22.8754 98.4348 21.0261 98.4577 14.0286 94.2465L22.8754 98.4348ZM10.0452 56.2584C10.0452 56.2584 5.03029 58.361 2.3291 64.1866L10.0452 56.2584ZM16.3595 21.5031C16.3595 21.5031 14.5595 28.4378 16.1235 34.2641L16.3595 21.5031ZM22.3876 12.646C22.3876 12.646 37.3343 0.00124398 52.5579 5.62286L22.3876 12.646Z" stroke="#666666"/>
<path d="M36.1461 30.7702C36.1461 30.7702 43.6355 20.4743 54.6488 15.5364" stroke="#F2F2F2" stroke-width="3" stroke-linecap="square"/>
<path d="M24.3463 69.2273C24.3463 69.2273 23.8622 81.7481 30.1101 91.5861M54.1383 99.6199C54.1383 99.6199 61.8096 98.1426 72.0173 84.0882L54.1383 99.6199Z" stroke="white" stroke-width="3"/>
<path d="M41.659 53.3814C41.659 53.3814 48.2148 54.9185 66.869 61.5066" stroke="#999999"/>
<path d="M41.659 53.0634C41.659 53.0634 48.2148 54.6005 66.869 61.1886" stroke="#ECECEC"/>
</g>
<defs>
<radialGradient id="paint0_radial" cx="0" cy="0" r="1" gradientUnits="userSpaceOnUse" gradientTransform="translate(59.8628 45.3665) scale(51.2935 51.2025)">
<stop stop-color="#6A6A6A"/>
<stop offset="1"/>
</radialGradient>
<radialGradient id="paint1_radial" cx="0" cy="0" r="1" gradientUnits="userSpaceOnUse" gradientTransform="translate(60.1415 46.8547) scale(56.0149 55.9155)">
<stop stop-color="white"/>
<stop offset="0.47" stop-color="white"/>
<stop offset="1" stop-color="#D6D6D6"/>
</radialGradient>
<linearGradient id="paint2_linear" x1="70.7532" y1="59.7716" x2="99.4348" y2="63.7651" gradientUnits="userSpaceOnUse">
<stop/>
<stop offset="1" stop-opacity="0"/>
</linearGradient>
<linearGradient id="paint3_linear" x1="41.7565" y1="47.3234" x2="13.7927" y2="39.9175" gradientUnits="userSpaceOnUse">
<stop/>
<stop offset="1" stop-opacity="0"/>
</linearGradient>
<linearGradient id="paint4_linear" x1="60.8431" y1="10.6498" x2="62.354" y2="-4.89128" gradientUnits="userSpaceOnUse">
<stop stop-color="#333333"/>
<stop offset="1" stop-opacity="0"/>
</linearGradient>
<clipPath id="clip0">
<rect width="112" height="120" fill="white"/>
</clipPath>
</defs>
</svg>
