<svg viewBox="0 0 450 483" xmlns="http://www.w3.org/2000/svg" xmlns:xlink="http://www.w3.org/1999/xlink"><defs><linearGradient id="a"><stop offset="0"/><stop stop-opacity="0" offset="1"/></linearGradient><linearGradient id="f" x1=".233" x2=".376" y1=".355" y2="-.473"><stop stop-color="#333" offset="0"/><stop stop-opacity="0" offset="1"/></linearGradient><linearGradient id="e" x1="1.02" x2=".139" y1=".427" y2=".145" xlink:href="#a"/><linearGradient id="d" x1=".11" x2="1.019" y1=".35" y2=".496" xlink:href="#a"/><radialGradient id="c" cx="478.61" cy="550.29" r="225.06" gradientUnits="userSpaceOnUse"><stop stop-color="#fff" offset="0"/><stop stop-color="#fff" offset=".47"/><stop stop-color="#d6d6d6" offset="1"/></radialGradient><radialGradient id="b" cx="477.49" cy="544.3" r="206.09" gradientUnits="userSpaceOnUse"><stop stop-color="#6a6a6a" offset="0"/><stop offset="1"/></radialGradient></defs><path transform="translate(-236.97 -361.7)" d="M687.14 591.56c0 124.25-100.84 225.08-225.08 225.08S236.98 715.8 236.98 591.56s100.84-225.08 225.08-225.08 225.08 100.84 225.08 225.08z" fill="url(#b)" fill-rule="evenodd"/><path transform="translate(-236.97 -361.7)" d="M462.05 366.48c-49.128 0-94.576 15.785-131.59 42.531-16.116 19.49-27.406 39-27.406 39l-20.562 7.875c-28.559 37.736-45.5 84.748-45.5 135.69 0 4.758.146 9.471.438 14.156 5.115 9.14 8.937 14.969 8.937 14.969l-2.625 25.688c14.701 58.68 52.455 108.24 103.06 138.5 3.616 2.338 6.636 3.754 9.954 5.63-1.76-1.662-2.303-2.107-3.454-3.161-13.247-13.702-24.406-29.72-24.406-29.72l32.031-29.468s20.594 15.565 43.719 23.625 48.781 8.625 48.781 8.625l15.875 40.75s-14.028 7.194-33.938 10.719c-3.565.63-7.333 1.144-11.094 1.562a226.04 226.04 0 0037.781 3.188c52.043 0 99.99-17.684 138.12-47.375 11.93-15.985 19.75-29.72 19.75-29.72l17.375-6.812c30.833-38.223 49.436-86.719 49.812-139.53-6.124-18.158-12.812-28.812-12.812-28.812s1.707-16.582-.69-34.848c-.377-2.866 1.549-1.846 3.867-3.402-.688-2.595-3.185-10.306-4.445-13.988-4.96-14.496-9.84-21.412-13.044-27.824 6.243 3.488-.025-.019-.032-.031-38.13-70.163-112.49-117.81-197.91-117.81zm27.219 8.563c18.704.255 38.219 6.312 38.219 6.312s22.173 8.52 38 20.562 25.312 27.594 25.312 27.594l-40.25 27.812s-21.666-14.842-44.312-22.844-46.281-9.156-46.281-9.156l-11.406-41.531s17.263-8.11 37-8.719a83.526 83.526 0 013.719-.031zm-131.53 111.19c13.82.063 25.312 1.718 25.312 1.718l20.812 88.438-66.812 63.625s-20.863-13.237-35.906-26.188-24.281-25.625-24.281-25.625 2.716-25.654 8.844-47.719 15.688-40.53 15.688-40.53 16.519-9.507 36.938-12.5c6.38-.936 13.124-1.248 19.406-1.22zm216.53 63.156s18.838 8.253 34.031 20.406 26.75 28.219 26.75 28.219-1.078 22-8.344 44.875-20.719 46.625-20.719 46.625-18.778 6.89-38.594 8.75-40.688-1.313-40.688-1.313l-10.344-43.281-10.656-44.5s14.142-17.052 31.281-32 37.281-27.781 37.281-27.781z" fill="url(#c)" fill-rule="evenodd"/><path transform="translate(-236.97 -361.7)" d="M633.37 598.68s-1.058 21.443-8.136 43.725-20.175 45.403-20.175 45.403-18.297 6.724-37.6 8.535-39.612-1.29-39.612-1.29l-10.088-42.15-10.371-43.334s13.772-16.632 30.468-31.193 36.315-27.05 36.315-27.05 18.347 8.052 33.147 19.89 26.053 27.463 26.053 27.463z" fill="none" stroke="url(#d)" stroke-linejoin="round" stroke-width="4.87"/><path transform="translate(-236.97 -361.7)" d="M337.13 638.06s-20.337-12.906-35.001-25.53-23.655-24.968-23.655-24.968 2.637-24.996 8.61-46.505 15.284-39.53 15.284-39.53 16.098-9.255 36.003-12.173 43.615.501 43.615.501l20.28 86.211-65.136 61.995z" fill="none" stroke="url(#e)" stroke-linejoin="round" stroke-width="4.874"/><path transform="translate(-236.97 -361.7)" d="M526.54 385.59s19.464 7.496 33.366 18.073 22.24 24.235 22.24 24.235l-35.357 24.431s-19.031-13.054-38.923-20.082-47.713-9.797-47.713-9.797l-9.32-36.843s19.396-6.77 36.732-7.304 38.976 7.287 38.976 7.287z" fill="none" stroke="url(#f)" stroke-width="5.016"/><path d="M145.04 127.45s36.187-48.081 78.437-64.331" fill="none" stroke="#666"/><path d="M315.81 94.4s26.985 42.926 23.485 91.926" fill="none" stroke="#ececec" stroke-width="3"/><path d="M313.4 94.91s27.576 44.376 24.076 93.376M350.83 67.55s59.783 23.6 86.033 98.35M398.45 236.19s21.044-1.635 39.429-32.747M383.42 377.62s2.92-18.129-14.521-50.953M216.7 399.23s32.35-8.574 73.362-65.142M99.85 277.52s-1.945 50.381 23.158 89.979M91.91 396.2s-7.43.092-35.545-16.858M40.36 226.44s-20.149 8.463-31.002 31.911M65.73 86.55s-7.232 27.912-.948 51.363M89.95 50.9S150.004.005 211.17 22.632M232.18 439.52s52.386 13.451 133.19-34.233" fill="none" stroke="#666"/><path d="M145.23 123.85s30.091-41.441 74.341-61.316" fill="none" stroke="#f2f2f2" stroke-linecap="square" stroke-width="3"/><path d="M217.52 400.97s30.822-5.946 71.835-62.515M97.82 278.64s-1.945 50.396 23.158 89.994" fill="none" stroke="#fff" stroke-width="3"/><path d="M167.38 214.86s26.34 6.187 101.29 32.704" fill="none" stroke="#999"/><path d="M167.38 213.58s26.34 6.187 101.29 32.704" fill="none" stroke="#ececec"/></svg>